<mxfile host="65bd71144e">
    <diagram name="Page-1" id="5QJrJIzcXwLKa7ETfwGM">
        <mxGraphModel dx="324" dy="613" grid="1" gridSize="10" guides="1" tooltips="1" connect="1" arrows="1" fold="1" page="1" pageScale="1" pageWidth="850" pageHeight="1100" math="0" shadow="0">
            <root>
                <mxCell id="0"/>
                <mxCell id="1" parent="0"/>
                <mxCell id="36gx3z8lY3JEfR8uMzHo-1" value="&lt;b&gt;ClearMoney.com&lt;/b&gt;" style="html=1;whiteSpace=wrap;verticalAlign=top;" parent="1" vertex="1">
                    <mxGeometry x="1500" y="260" width="430" height="720" as="geometry"/>
                </mxCell>
                <mxCell id="36gx3z8lY3JEfR8uMzHo-2" style="rounded=0;orthogonalLoop=1;jettySize=auto;html=1;exitX=1;exitY=0.5;exitDx=0;exitDy=0;entryX=0;entryY=0.5;entryDx=0;entryDy=0;dashed=1;dashPattern=8 8;" parent="1" source="36gx3z8lY3JEfR8uMzHo-4" target="36gx3z8lY3JEfR8uMzHo-11" edge="1">
                    <mxGeometry relative="1" as="geometry"/>
                </mxCell>
                <mxCell id="36gx3z8lY3JEfR8uMzHo-3" value="&amp;lt;&amp;lt; include &amp;gt;&amp;gt;" style="edgeLabel;html=1;align=center;verticalAlign=middle;resizable=0;points=[];shadow=0;" parent="36gx3z8lY3JEfR8uMzHo-2" vertex="1" connectable="0">
                    <mxGeometry x="-0.0752" y="-1" relative="1" as="geometry">
                        <mxPoint x="-10" y="115" as="offset"/>
                    </mxGeometry>
                </mxCell>
                <mxCell id="36gx3z8lY3JEfR8uMzHo-4" value="CRUD Revenues" style="ellipse;whiteSpace=wrap;html=1;" parent="1" vertex="1">
                    <mxGeometry x="1550" y="312" width="120" height="80" as="geometry"/>
                </mxCell>
                <mxCell id="36gx3z8lY3JEfR8uMzHo-5" style="rounded=0;orthogonalLoop=1;jettySize=auto;html=1;exitX=1;exitY=0.5;exitDx=0;exitDy=0;entryX=0;entryY=0.5;entryDx=0;entryDy=0;dashed=1;dashPattern=8 8;" parent="1" source="36gx3z8lY3JEfR8uMzHo-6" target="36gx3z8lY3JEfR8uMzHo-11" edge="1">
                    <mxGeometry relative="1" as="geometry"/>
                </mxCell>
                <mxCell id="36gx3z8lY3JEfR8uMzHo-6" value="CRUD Major Expenses" style="ellipse;whiteSpace=wrap;html=1;" parent="1" vertex="1">
                    <mxGeometry x="1550" y="420" width="120" height="80" as="geometry"/>
                </mxCell>
                <mxCell id="36gx3z8lY3JEfR8uMzHo-7" style="rounded=0;orthogonalLoop=1;jettySize=auto;html=1;exitX=1;exitY=0.5;exitDx=0;exitDy=0;entryX=0;entryY=0.5;entryDx=0;entryDy=0;dashed=1;dashPattern=8 8;" parent="1" source="36gx3z8lY3JEfR8uMzHo-8" target="36gx3z8lY3JEfR8uMzHo-11" edge="1">
                    <mxGeometry relative="1" as="geometry"/>
                </mxCell>
                <mxCell id="36gx3z8lY3JEfR8uMzHo-8" value="&lt;div style=&quot;direction: rtl;&quot;&gt;&lt;span style=&quot;background-color: initial;&quot;&gt;CRUD Financial Goals&lt;/span&gt;&lt;/div&gt;" style="ellipse;whiteSpace=wrap;html=1;" parent="1" vertex="1">
                    <mxGeometry x="1550" y="650" width="120" height="80" as="geometry"/>
                </mxCell>
                <mxCell id="36gx3z8lY3JEfR8uMzHo-9" style="rounded=0;orthogonalLoop=1;jettySize=auto;html=1;exitX=1;exitY=0.5;exitDx=0;exitDy=0;entryX=0;entryY=0.5;entryDx=0;entryDy=0;dashed=1;dashPattern=8 8;" parent="1" source="36gx3z8lY3JEfR8uMzHo-10" target="36gx3z8lY3JEfR8uMzHo-11" edge="1">
                    <mxGeometry relative="1" as="geometry"/>
                </mxCell>
                <mxCell id="36gx3z8lY3JEfR8uMzHo-10" value="CRUD Daily Expenses" style="ellipse;whiteSpace=wrap;html=1;" parent="1" vertex="1">
                    <mxGeometry x="1550" y="540" width="120" height="80" as="geometry"/>
                </mxCell>
                <mxCell id="36gx3z8lY3JEfR8uMzHo-11" value="Authentication" style="ellipse;whiteSpace=wrap;html=1;" parent="1" vertex="1">
                    <mxGeometry x="1780" y="525" width="120" height="80" as="geometry"/>
                </mxCell>
                <mxCell id="36gx3z8lY3JEfR8uMzHo-12" style="rounded=0;orthogonalLoop=1;jettySize=auto;html=1;exitX=0.5;exitY=0.5;exitDx=0;exitDy=0;exitPerimeter=0;entryX=0;entryY=0.5;entryDx=0;entryDy=0;endArrow=none;endFill=0;" parent="1" source="36gx3z8lY3JEfR8uMzHo-16" target="36gx3z8lY3JEfR8uMzHo-4" edge="1">
                    <mxGeometry relative="1" as="geometry"/>
                </mxCell>
                <mxCell id="36gx3z8lY3JEfR8uMzHo-13" style="rounded=0;orthogonalLoop=1;jettySize=auto;html=1;exitX=0.5;exitY=0.5;exitDx=0;exitDy=0;exitPerimeter=0;entryX=0;entryY=0.5;entryDx=0;entryDy=0;endArrow=none;endFill=0;" parent="1" source="36gx3z8lY3JEfR8uMzHo-16" target="36gx3z8lY3JEfR8uMzHo-6" edge="1">
                    <mxGeometry relative="1" as="geometry"/>
                </mxCell>
                <mxCell id="36gx3z8lY3JEfR8uMzHo-14" style="rounded=0;orthogonalLoop=1;jettySize=auto;html=1;exitX=0.5;exitY=0.5;exitDx=0;exitDy=0;exitPerimeter=0;entryX=0;entryY=0.5;entryDx=0;entryDy=0;endArrow=none;endFill=0;" parent="1" source="36gx3z8lY3JEfR8uMzHo-16" target="36gx3z8lY3JEfR8uMzHo-10" edge="1">
                    <mxGeometry relative="1" as="geometry"/>
                </mxCell>
                <mxCell id="36gx3z8lY3JEfR8uMzHo-15" style="rounded=0;orthogonalLoop=1;jettySize=auto;html=1;exitX=0.5;exitY=0.5;exitDx=0;exitDy=0;exitPerimeter=0;entryX=0;entryY=0.5;entryDx=0;entryDy=0;endArrow=none;endFill=0;" parent="1" source="36gx3z8lY3JEfR8uMzHo-16" target="36gx3z8lY3JEfR8uMzHo-8" edge="1">
                    <mxGeometry relative="1" as="geometry"/>
                </mxCell>
                <mxCell id="36gx3z8lY3JEfR8uMzHo-16" value="Utilisateur" style="shape=umlActor;verticalLabelPosition=bottom;verticalAlign=top;html=1;outlineConnect=0;" parent="1" vertex="1">
                    <mxGeometry x="1330" y="496" width="30" height="60" as="geometry"/>
                </mxCell>
                <mxCell id="36gx3z8lY3JEfR8uMzHo-17" value="&amp;lt;&amp;lt; include &amp;gt;&amp;gt;" style="edgeLabel;html=1;align=center;verticalAlign=middle;resizable=0;points=[];" parent="1" vertex="1" connectable="0">
                    <mxGeometry x="1700.0020221173413" y="470.0024764759948" as="geometry">
                        <mxPoint x="23" y="12" as="offset"/>
                    </mxGeometry>
                </mxCell>
                <mxCell id="36gx3z8lY3JEfR8uMzHo-18" value="&amp;lt;&amp;lt; include &amp;gt;&amp;gt;" style="edgeLabel;html=1;align=center;verticalAlign=middle;resizable=0;points=[];" parent="1" vertex="1" connectable="0">
                    <mxGeometry x="1749.5920221173415" y="444.0724764759948" as="geometry"/>
                </mxCell>
                <mxCell id="36gx3z8lY3JEfR8uMzHo-19" value="&amp;lt;&amp;lt; include &amp;gt;&amp;gt;" style="edgeLabel;html=1;align=center;verticalAlign=middle;resizable=0;points=[];" parent="1" vertex="1" connectable="0">
                    <mxGeometry x="1730.0020221173413" y="610.0024764759949" as="geometry">
                        <mxPoint x="-1" y="1" as="offset"/>
                    </mxGeometry>
                </mxCell>
                <mxCell id="36gx3z8lY3JEfR8uMzHo-20" style="rounded=0;orthogonalLoop=1;jettySize=auto;html=1;exitX=1;exitY=0.5;exitDx=0;exitDy=0;entryX=0;entryY=0.5;entryDx=0;entryDy=0;dashed=1;dashPattern=8 8;" parent="1" source="36gx3z8lY3JEfR8uMzHo-21" target="36gx3z8lY3JEfR8uMzHo-11" edge="1">
                    <mxGeometry relative="1" as="geometry">
                        <mxPoint x="1800" y="610" as="targetPoint"/>
                    </mxGeometry>
                </mxCell>
                <mxCell id="36gx3z8lY3JEfR8uMzHo-21" value="&lt;div style=&quot;direction: rtl;&quot;&gt;&amp;nbsp;Get Reports&lt;/div&gt;" style="ellipse;whiteSpace=wrap;html=1;" parent="1" vertex="1">
                    <mxGeometry x="1550" y="752" width="120" height="80" as="geometry"/>
                </mxCell>
                <mxCell id="36gx3z8lY3JEfR8uMzHo-22" style="rounded=0;orthogonalLoop=1;jettySize=auto;html=1;exitX=0.5;exitY=0.5;exitDx=0;exitDy=0;exitPerimeter=0;entryX=0;entryY=0.5;entryDx=0;entryDy=0;endArrow=none;endFill=0;" parent="1" source="36gx3z8lY3JEfR8uMzHo-16" target="36gx3z8lY3JEfR8uMzHo-21" edge="1">
                    <mxGeometry relative="1" as="geometry">
                        <mxPoint x="1345" y="628" as="sourcePoint"/>
                    </mxGeometry>
                </mxCell>
                <mxCell id="36gx3z8lY3JEfR8uMzHo-23" value="&amp;lt;&amp;lt; include &amp;gt;&amp;gt;" style="edgeLabel;html=1;align=center;verticalAlign=middle;resizable=0;points=[];" parent="1" vertex="1" connectable="0">
                    <mxGeometry x="1700.0020221173413" y="720.0024764759949" as="geometry">
                        <mxPoint x="-8" y="3" as="offset"/>
                    </mxGeometry>
                </mxCell>
                <mxCell id="2" value="&lt;div style=&quot;direction: rtl;&quot;&gt;&lt;span style=&quot;background-color: initial;&quot;&gt;CRUD Categories&lt;/span&gt;&lt;/div&gt;" style="ellipse;whiteSpace=wrap;html=1;" vertex="1" parent="1">
                    <mxGeometry x="1550" y="860" width="120" height="80" as="geometry"/>
                </mxCell>
                <mxCell id="3" style="rounded=0;orthogonalLoop=1;jettySize=auto;html=1;exitX=0.5;exitY=0.5;exitDx=0;exitDy=0;exitPerimeter=0;entryX=0;entryY=0.5;entryDx=0;entryDy=0;endArrow=none;endFill=0;" edge="1" parent="1" source="36gx3z8lY3JEfR8uMzHo-16" target="2">
                    <mxGeometry relative="1" as="geometry">
                        <mxPoint x="1355" y="536" as="sourcePoint"/>
                        <mxPoint x="1560" y="802" as="targetPoint"/>
                    </mxGeometry>
                </mxCell>
                <mxCell id="4" style="rounded=0;orthogonalLoop=1;jettySize=auto;html=1;exitX=1;exitY=0.5;exitDx=0;exitDy=0;entryX=0;entryY=0.5;entryDx=0;entryDy=0;dashed=1;dashPattern=8 8;" edge="1" parent="1" source="2" target="36gx3z8lY3JEfR8uMzHo-11">
                    <mxGeometry relative="1" as="geometry">
                        <mxPoint x="1790" y="575" as="targetPoint"/>
                        <mxPoint x="1680" y="802" as="sourcePoint"/>
                    </mxGeometry>
                </mxCell>
                <mxCell id="5" value="&amp;lt;&amp;lt; include &amp;gt;&amp;gt;" style="edgeLabel;html=1;align=center;verticalAlign=middle;resizable=0;points=[];" vertex="1" connectable="0" parent="1">
                    <mxGeometry x="1715.0020221173413" y="792.0024764759949" as="geometry">
                        <mxPoint x="-1" y="1" as="offset"/>
                    </mxGeometry>
                </mxCell>
            </root>
        </mxGraphModel>
    </diagram>
</mxfile>